<svg xmlns="http://www.w3.org/2000/svg" width="20" height="20" viewBox="0 0 20 20"><g><g><g/><g><path fill="#fff" d="M10 6.4A3.604 3.604 0 0 0 6.4 10c0 1.985 1.615 3.6 3.6 3.6s3.6-1.615 3.6-3.6-1.615-3.6-3.6-3.6z"/></g><g><path fill="#fff" d="M.4 4.39A3.99 3.99 0 0 1 4.39.4h11.22a3.99 3.99 0 0 1 3.99 3.99v11.22a3.99 3.99 0 0 1-3.99 3.99H4.39A3.99 3.99 0 0 1 .4 15.61zm4.16 3.576a5.823 5.823 0 0 0 7.474 7.474 5.508 5.508 0 0 0 3.406-3.406A5.823 5.823 0 0 0 7.966 4.56 5.508 5.508 0 0 0 4.56 7.966zM16 4.6a1.2 1.2 0 1 0 0-2.4 1.2 1.2 0 0 0 0 2.4z"/></g></g></g></svg>