<svg xmlns="http://www.w3.org/2000/svg" width="20" height="23" viewBox="0 0 20 23"><defs><mask id="63chb" width="2" height="2" x="-1" y="-1"><path fill="#fff" d="M3 2h14v17H3z"/><path d="M6.836 3c0-.552.443-1 1-1 .552 0 1.027.438 1.062 1.001l.259 4.167c.03.09.044.205.044.348v-.323c0-.447.38-.809.849-.809.937 0 1.696.724 1.696 1.617v-.323c0-.447.38-.809.849-.809.936 0 1.696.724 1.696 1.618v-.324c0-.446.38-.808.848-.808.937 0 1.696.724 1.715 1.617v4.035c0 .548-.232 1.375-.51 1.844 0 0-1.509 2.413-1.509 3.179V19h-1l-1-2-1 2h-4v-.97c0-.766-2.468-2.81-2.468-2.81-.412-.357-.909-1.07-1.104-1.573l-1.227-3.175a.576.576 0 0 1 .189-.655c.962-.397 2.15-.048 2.724.828L6.836 12zM3.297 9.772a.51.51 0 0 0-.072.045 2.086 2.086 0 0 0-.157.073zM13.854 11v4h1v-4zm-2 0v4h1v-4zm-2 0v4h1v-4z"/></mask><filter id="63cha" width="40" height="44" x="-10" y="-11" filterUnits="userSpaceOnUse"><feOffset dy="1" in="SourceGraphic" result="FeOffset1307Out"/><feGaussianBlur in="FeOffset1307Out" result="FeGaussianBlur1308Out" stdDeviation="1.2 1.2"/></filter><clipPath id="63chc"><path fill="#fff" d="M2.052 20V1h15.896v19zm4.784-8l-.887-1.355c-.574-.876-1.762-1.225-2.724-.828a.576.576 0 0 0-.189.655l1.227 3.175c.195.504.692 1.216 1.104 1.573 0 0 2.469 2.044 2.469 2.81V19h4l1-2 1 2h1v-.97c0-.766 1.508-3.18 1.508-3.18.278-.468.51-1.295.51-1.843V8.972c-.018-.893-.778-1.617-1.715-1.617-.468 0-.848.362-.848.808v.324c0-.894-.76-1.618-1.696-1.618-.47 0-.849.362-.849.81V8c0-.893-.76-1.617-1.696-1.617-.469 0-.848.362-.848.809v.323a1.13 1.13 0 0 0-.045-.348l-.26-4.167A1.072 1.072 0 0 0 7.837 2c-.557 0-1 .448-1 1zM3.068 9.89c.051-.027.104-.05.157-.073a.51.51 0 0 1 .072-.045zM14.854 11v4h-1v-4zm-2 0v4h-1v-4zm-2 0v4h-1v-4z"/></clipPath></defs><g><g><g filter="url(#63cha)"><path fill="none" d="M6.836 3c0-.552.443-1 1-1 .552 0 1.027.438 1.062 1.001l.259 4.167c.03.09.044.205.044.348v-.323c0-.447.38-.809.849-.809.937 0 1.696.724 1.696 1.617v-.323c0-.447.38-.809.849-.809.936 0 1.696.724 1.696 1.618v-.324c0-.446.38-.808.848-.808.937 0 1.696.724 1.715 1.617v4.035c0 .548-.232 1.375-.51 1.844 0 0-1.509 2.413-1.509 3.179V19h-1l-1-2-1 2h-4v-.97c0-.766-2.468-2.81-2.468-2.81-.412-.357-.909-1.07-1.104-1.573l-1.227-3.175a.576.576 0 0 1 .189-.655c.962-.397 2.15-.048 2.724.828L6.836 12zM3.297 9.772a.51.51 0 0 0-.072.045 2.086 2.086 0 0 0-.157.073zM13.854 11v4h1v-4zm-2 0v4h1v-4zm-2 0v4h1v-4z" mask="url(&quot;#63chb&quot;)"/><path fill-opacity=".2" d="M6.836 3c0-.552.443-1 1-1 .552 0 1.027.438 1.062 1.001l.259 4.167c.03.09.044.205.044.348v-.323c0-.447.38-.809.849-.809.937 0 1.696.724 1.696 1.617v-.323c0-.447.38-.809.849-.809.936 0 1.696.724 1.696 1.618v-.324c0-.446.38-.808.848-.808.937 0 1.696.724 1.715 1.617v4.035c0 .548-.232 1.375-.51 1.844 0 0-1.509 2.413-1.509 3.179V19h-1l-1-2-1 2h-4v-.97c0-.766-2.468-2.81-2.468-2.81-.412-.357-.909-1.07-1.104-1.573l-1.227-3.175a.576.576 0 0 1 .189-.655c.962-.397 2.15-.048 2.724.828L6.836 12zM3.297 9.772a.51.51 0 0 0-.072.045 2.086 2.086 0 0 0-.157.073zM13.854 11v4h1v-4zm-2 0v4h1v-4zm-2 0v4h1v-4z"/></g><path fill="#fff" d="M6.836 3c0-.552.443-1 1-1 .552 0 1.027.438 1.062 1.001l.259 4.167c.03.09.044.205.044.348v-.323c0-.447.38-.809.849-.809.937 0 1.696.724 1.696 1.617v-.323c0-.447.38-.809.849-.809.936 0 1.696.724 1.696 1.618v-.324c0-.446.38-.808.848-.808.937 0 1.696.724 1.715 1.617v4.035c0 .548-.232 1.375-.51 1.844 0 0-1.509 2.413-1.509 3.179V19h-1l-1-2-1 2h-4v-.97c0-.766-2.468-2.81-2.468-2.81-.412-.357-.909-1.07-1.104-1.573l-1.227-3.175a.576.576 0 0 1 .189-.655c.962-.397 2.15-.048 2.724.828L6.836 12zM3.297 9.772a.51.51 0 0 0-.072.045 2.086 2.086 0 0 0-.157.073zM13.854 11v4h1v-4zm-2 0v4h1v-4zm-2 0v4h1v-4z"/><path fill="none" stroke="#000" stroke-miterlimit="20" stroke-opacity=".8" stroke-width="2" d="M6.836 3c0-.552.443-1 1-1 .552 0 1.027.438 1.062 1.001l.259 4.167c.03.09.044.205.044.348v-.323c0-.447.38-.809.849-.809.937 0 1.696.724 1.696 1.617v-.323c0-.447.38-.809.849-.809.936 0 1.696.724 1.696 1.618v-.324c0-.446.38-.808.848-.808.937 0 1.696.724 1.715 1.617v4.035c0 .548-.232 1.375-.51 1.844 0 0-1.509 2.413-1.509 3.179V19h-1l-1-2-1 2h-4v-.97c0-.766-2.468-2.81-2.468-2.81-.412-.357-.909-1.07-1.104-1.573l-1.227-3.175a.576.576 0 0 1 .189-.655c.962-.397 2.15-.048 2.724.828L6.836 12zM3.297 9.772a.51.51 0 0 0-.072.045 2.086 2.086 0 0 0-.157.073zM13.854 11v4h1v-4zm-2 0v4h1v-4zm-2 0v4h1v-4z" clip-path="url(&quot;#63chc&quot;)"/></g></g></svg>