<svg xmlns="http://www.w3.org/2000/svg" width="22" height="18"><path d="M22.074 2.13a9.443 9.443 0 01-2.617.718 4.517 4.517 0 001.998-2.51 9.076 9.076 0 01-2.88 1.1 4.54 4.54 0 00-7.856 3.106c0 .359.03.705.105 1.035C7.048 5.394 3.707 3.585 1.462.828a4.573 4.573 0 00-.621 2.296c0 1.573.81 2.967 2.017 3.774a4.485 4.485 0 01-2.052-.56v.05a4.563 4.563 0 003.639 4.463c-.37.101-.773.15-1.19.15-.292 0-.585-.017-.86-.078.588 1.799 2.258 3.121 4.243 3.164a9.125 9.125 0 01-5.631 1.937c-.373 0-.73-.017-1.087-.062A12.787 12.787 0 006.887 18c8.358 0 12.927-6.923 12.927-12.924 0-.2-.007-.395-.017-.587a9.06 9.06 0 002.277-2.358z" opacity=".16"/></svg>